<?xml version="1.0" encoding="utf-8"?>
<!-- Generator: Adobe Illustrator 24.0.3, SVG Export Plug-In . SVG Version: 6.00 Build 0)  -->
<svg version="1.1" id="Layer_1" xmlns="http://www.w3.org/2000/svg" xmlns:xlink="http://www.w3.org/1999/xlink" x="0px" y="0px"
	 viewBox="0 0 288 288" style="enable-background:new 0 0 288 288;" xml:space="preserve">
<style type="text/css">
	.st0{fill:#5ECBF1;}
	.st1{fill:none;stroke:#231F20;stroke-width:8;stroke-miterlimit:10;}
	.st2{stroke:#000000;stroke-width:1.5;stroke-linecap:round;stroke-linejoin:round;stroke-miterlimit:9.9998;}
	.st3{stroke:#000000;stroke-width:1.5;stroke-linecap:round;stroke-linejoin:round;stroke-miterlimit:10;}
	.st4{fill:none;stroke:#000000;stroke-width:3.9;stroke-linecap:round;stroke-linejoin:round;stroke-miterlimit:10;}
	.st5{fill:none;stroke:#000000;stroke-width:4.5;stroke-linecap:round;stroke-linejoin:round;stroke-miterlimit:10;}
</style>
<path class="st0" d="M122.058,33.729c-0.174,0-0.509,0.024-0.52,0.026c-45.102,3.974-81.059,39.936-85.011,85.092
	c-0.003,0.031-0.028,0.444-0.03,0.483c-0.001,0.028-0.012,0.257-0.012,0.356c0,2.915,2.362,5.277,5.277,5.277
	c2.831,0,5.141-2.229,5.27-5.026l-0.003-0.001c3.437-40.121,35.315-72.106,75.36-75.661l0,0c2.674-0.169,4.813-2.333,4.938-5.018
	c0.004-0.084,0.005-0.166,0.005-0.251C127.336,36.092,124.973,33.729,122.058,33.729z"/>
<path class="st0" d="M122.065,54.708c-0.189,0-0.375,0.014-0.559,0.032c-0.003,0-0.076,0.007-0.082,0.008
	c-33.835,3.906-60.759,31.417-63.981,64.313c0,0-0.04,0.432-0.04,0.656c0,2.915,2.362,5.277,5.277,5.277
	c2.831,0,5.141-2.229,5.27-5.026c0.001-0.028,0.001-0.057,0.001-0.085c3.309-28.561,25.917-51.231,54.439-54.625v-0.026
	c2.676-0.167,4.818-2.307,4.944-4.995c0.004-0.082,0.005-0.166,0.005-0.25C127.341,57.071,124.979,54.708,122.065,54.708z"/>
<path class="st0" d="M122.058,75.774c-0.333,0-0.667,0.032-0.984,0.092c-21.736,3.688-38.949,20.971-42.532,42.746
	c-0.012,0.058-0.02,0.116-0.031,0.174c-0.057,0.319-0.096,0.759-0.096,0.95c0,2.915,2.362,5.277,5.277,5.277
	c0.209,0,0.416-0.012,0.618-0.036c2.465-0.288,4.412-2.276,4.636-4.76c0.007-0.077,0.042-0.427,0.051-0.482
	c3.044-16.98,16.421-30.344,33.392-33.415c0,0,0.192-0.018,0.286-0.03c2.541-0.297,4.531-2.399,4.652-4.991
	c0.004-0.084,0.005-0.166,0.005-0.251C127.336,78.136,124.973,75.774,122.058,75.774z"/>
<g>
	<path class="st1" d="M284.4,203.4c0,44.55-36.45,81-81,81H84.6c-44.55,0-81-36.45-81-81V84.6c0-44.55,36.45-81,81-81h118.8
		c44.55,0,81,36.45,81,81V203.4z"/>
</g>
<rect id="rect3882" x="75.28" y="180.733" transform="matrix(0.7071 -0.7071 0.7071 0.7071 -107.4578 130.8464)" class="st2" width="57.873" height="28.806"/>
<rect id="rect3884" x="167.322" y="88.875" transform="matrix(0.7071 -0.7071 0.7071 0.7071 -15.546 169.0253)" class="st2" width="57.873" height="28.806"/>
<path id="path3886" class="st3" d="M114.343,113.274c-8.305,8.305-8.305,22.32,0,30.623l41.005,40.746l30.623-30.623l-40.744-40.746
	C136.663,104.97,122.908,104.97,114.343,113.274z"/>
<path id="path3888" class="st3" d="M170.66,169.591c-11.159,11.159-11.159,29.585,0,40.746l40.746-40.746
	C200.246,158.432,181.82,158.432,170.66,169.591z"/>
<path id="path3890" class="st4" d="M175.072,229.801c14.793,14.793,38.929,14.793,53.722,0c14.793-14.793,14.793-38.929,0-53.722"/>
<path id="path3892" class="st4" d="M188.568,211.894c6.488,6.488,16.609,6.488,23.097,0s6.488-16.609,0-23.097"/>
<line id="line3894" class="st5" x1="124.725" y1="174.522" x2="135.105" y2="164.401"/>
<line id="line3896" class="st5" x1="165.73" y1="133.776" x2="175.851" y2="123.656"/>
</svg>
